<mxfile host="app.diagrams.net" modified="2023-10-25T03:54:15.015Z" agent="Mozilla/5.0 (Macintosh; Intel Mac OS X 10_15_7) AppleWebKit/537.36 (KHTML, like Gecko) Chrome/118.0.0.0 Safari/537.36" etag="O6PHjSbuyJZ92oxW8PzM" version="22.0.7" type="github">
  <diagram name="第 1 页" id="7QzRgnAwLTpDjjPdEpnH">
    <mxGraphModel dx="2261" dy="765" grid="1" gridSize="10" guides="1" tooltips="1" connect="1" arrows="1" fold="1" page="1" pageScale="1" pageWidth="827" pageHeight="1169" math="0" shadow="0">
      <root>
        <mxCell id="0" />
        <mxCell id="1" parent="0" />
        <mxCell id="oPLxPiiAgAH0P23eS_g3-4" style="edgeStyle=orthogonalEdgeStyle;rounded=0;orthogonalLoop=1;jettySize=auto;html=1;exitX=0.5;exitY=1;exitDx=0;exitDy=0;entryX=0.5;entryY=0;entryDx=0;entryDy=0;" edge="1" parent="1" source="oPLxPiiAgAH0P23eS_g3-1" target="oPLxPiiAgAH0P23eS_g3-2">
          <mxGeometry relative="1" as="geometry" />
        </mxCell>
        <mxCell id="oPLxPiiAgAH0P23eS_g3-1" value="选择任务类型&lt;br&gt;填参数" style="rounded=0;whiteSpace=wrap;html=1;" vertex="1" parent="1">
          <mxGeometry x="80" y="270" width="120" height="30" as="geometry" />
        </mxCell>
        <mxCell id="oPLxPiiAgAH0P23eS_g3-5" style="edgeStyle=orthogonalEdgeStyle;rounded=0;orthogonalLoop=1;jettySize=auto;html=1;exitX=0.5;exitY=1;exitDx=0;exitDy=0;entryX=0.5;entryY=0;entryDx=0;entryDy=0;" edge="1" parent="1" source="oPLxPiiAgAH0P23eS_g3-2" target="oPLxPiiAgAH0P23eS_g3-3">
          <mxGeometry relative="1" as="geometry" />
        </mxCell>
        <mxCell id="oPLxPiiAgAH0P23eS_g3-2" value="提交任务" style="rounded=0;whiteSpace=wrap;html=1;" vertex="1" parent="1">
          <mxGeometry x="80" y="320" width="120" height="30" as="geometry" />
        </mxCell>
        <mxCell id="oPLxPiiAgAH0P23eS_g3-25" style="edgeStyle=orthogonalEdgeStyle;rounded=0;orthogonalLoop=1;jettySize=auto;html=1;exitX=0.5;exitY=1;exitDx=0;exitDy=0;entryX=0.5;entryY=0;entryDx=0;entryDy=0;" edge="1" parent="1" source="oPLxPiiAgAH0P23eS_g3-3" target="oPLxPiiAgAH0P23eS_g3-6">
          <mxGeometry relative="1" as="geometry" />
        </mxCell>
        <mxCell id="oPLxPiiAgAH0P23eS_g3-3" value="excel上传到ceph" style="rounded=0;whiteSpace=wrap;html=1;" vertex="1" parent="1">
          <mxGeometry x="80" y="360" width="120" height="30" as="geometry" />
        </mxCell>
        <mxCell id="oPLxPiiAgAH0P23eS_g3-6" value="" style="rounded=0;whiteSpace=wrap;html=1;" vertex="1" parent="1">
          <mxGeometry x="-20" y="410" width="315" height="350" as="geometry" />
        </mxCell>
        <mxCell id="oPLxPiiAgAH0P23eS_g3-8" value="定时任务" style="text;html=1;strokeColor=none;fillColor=none;align=center;verticalAlign=middle;whiteSpace=wrap;rounded=0;" vertex="1" parent="1">
          <mxGeometry x="-20" y="410" width="60" height="30" as="geometry" />
        </mxCell>
        <mxCell id="oPLxPiiAgAH0P23eS_g3-18" style="edgeStyle=orthogonalEdgeStyle;rounded=0;orthogonalLoop=1;jettySize=auto;html=1;exitX=0.5;exitY=1;exitDx=0;exitDy=0;entryX=0.5;entryY=0;entryDx=0;entryDy=0;" edge="1" parent="1" source="oPLxPiiAgAH0P23eS_g3-9" target="oPLxPiiAgAH0P23eS_g3-10">
          <mxGeometry relative="1" as="geometry" />
        </mxCell>
        <mxCell id="oPLxPiiAgAH0P23eS_g3-9" value="任务抓取" style="rounded=0;whiteSpace=wrap;html=1;" vertex="1" parent="1">
          <mxGeometry y="440" width="100" height="50" as="geometry" />
        </mxCell>
        <mxCell id="oPLxPiiAgAH0P23eS_g3-19" style="edgeStyle=orthogonalEdgeStyle;rounded=0;orthogonalLoop=1;jettySize=auto;html=1;exitX=0.5;exitY=1;exitDx=0;exitDy=0;entryX=0.5;entryY=0;entryDx=0;entryDy=0;" edge="1" parent="1" source="oPLxPiiAgAH0P23eS_g3-10" target="oPLxPiiAgAH0P23eS_g3-11">
          <mxGeometry relative="1" as="geometry" />
        </mxCell>
        <mxCell id="oPLxPiiAgAH0P23eS_g3-10" value="根据任务类型走不同逻辑" style="rounded=0;whiteSpace=wrap;html=1;" vertex="1" parent="1">
          <mxGeometry y="510" width="100" height="50" as="geometry" />
        </mxCell>
        <mxCell id="oPLxPiiAgAH0P23eS_g3-20" style="edgeStyle=orthogonalEdgeStyle;rounded=0;orthogonalLoop=1;jettySize=auto;html=1;exitX=0.5;exitY=1;exitDx=0;exitDy=0;entryX=0.5;entryY=0;entryDx=0;entryDy=0;" edge="1" parent="1" source="oPLxPiiAgAH0P23eS_g3-11" target="oPLxPiiAgAH0P23eS_g3-13">
          <mxGeometry relative="1" as="geometry" />
        </mxCell>
        <mxCell id="oPLxPiiAgAH0P23eS_g3-11" value="通过rp查库对应的mhotelid（Set&amp;lt;String&amp;gt;）" style="rounded=0;whiteSpace=wrap;html=1;" vertex="1" parent="1">
          <mxGeometry y="580" width="100" height="60" as="geometry" />
        </mxCell>
        <mxCell id="oPLxPiiAgAH0P23eS_g3-21" style="edgeStyle=orthogonalEdgeStyle;rounded=0;orthogonalLoop=1;jettySize=auto;html=1;exitX=1;exitY=0.5;exitDx=0;exitDy=0;entryX=0;entryY=0.5;entryDx=0;entryDy=0;" edge="1" parent="1" source="oPLxPiiAgAH0P23eS_g3-13" target="oPLxPiiAgAH0P23eS_g3-14">
          <mxGeometry relative="1" as="geometry" />
        </mxCell>
        <mxCell id="oPLxPiiAgAH0P23eS_g3-13" value="多线程调实时查询工具" style="rounded=0;whiteSpace=wrap;html=1;" vertex="1" parent="1">
          <mxGeometry y="670" width="100" height="60" as="geometry" />
        </mxCell>
        <mxCell id="oPLxPiiAgAH0P23eS_g3-22" style="edgeStyle=orthogonalEdgeStyle;rounded=0;orthogonalLoop=1;jettySize=auto;html=1;exitX=0.5;exitY=0;exitDx=0;exitDy=0;entryX=0.5;entryY=1;entryDx=0;entryDy=0;" edge="1" parent="1" source="oPLxPiiAgAH0P23eS_g3-14" target="oPLxPiiAgAH0P23eS_g3-15">
          <mxGeometry relative="1" as="geometry" />
        </mxCell>
        <mxCell id="oPLxPiiAgAH0P23eS_g3-14" value="filter过滤掉不需要的rp" style="rounded=0;whiteSpace=wrap;html=1;" vertex="1" parent="1">
          <mxGeometry x="150" y="670" width="120" height="60" as="geometry" />
        </mxCell>
        <mxCell id="oPLxPiiAgAH0P23eS_g3-23" style="edgeStyle=orthogonalEdgeStyle;rounded=0;orthogonalLoop=1;jettySize=auto;html=1;exitX=0.5;exitY=0;exitDx=0;exitDy=0;entryX=0.5;entryY=1;entryDx=0;entryDy=0;" edge="1" parent="1" source="oPLxPiiAgAH0P23eS_g3-15" target="oPLxPiiAgAH0P23eS_g3-16">
          <mxGeometry relative="1" as="geometry" />
        </mxCell>
        <mxCell id="oPLxPiiAgAH0P23eS_g3-15" value="数据组装" style="rounded=0;whiteSpace=wrap;html=1;" vertex="1" parent="1">
          <mxGeometry x="150" y="580" width="120" height="60" as="geometry" />
        </mxCell>
        <mxCell id="oPLxPiiAgAH0P23eS_g3-24" style="edgeStyle=orthogonalEdgeStyle;rounded=0;orthogonalLoop=1;jettySize=auto;html=1;exitX=0.5;exitY=0;exitDx=0;exitDy=0;entryX=0.5;entryY=1;entryDx=0;entryDy=0;" edge="1" parent="1" source="oPLxPiiAgAH0P23eS_g3-16" target="oPLxPiiAgAH0P23eS_g3-17">
          <mxGeometry relative="1" as="geometry" />
        </mxCell>
        <mxCell id="oPLxPiiAgAH0P23eS_g3-16" value="生成excel" style="rounded=0;whiteSpace=wrap;html=1;" vertex="1" parent="1">
          <mxGeometry x="150" y="510" width="120" height="50" as="geometry" />
        </mxCell>
        <mxCell id="oPLxPiiAgAH0P23eS_g3-17" value="发邮件" style="rounded=0;whiteSpace=wrap;html=1;" vertex="1" parent="1">
          <mxGeometry x="150" y="440" width="120" height="50" as="geometry" />
        </mxCell>
      </root>
    </mxGraphModel>
  </diagram>
</mxfile>
